<svg width="24" height="24" viewBox="0 0 24 24" fill="none" xmlns="http://www.w3.org/2000/svg">
<path d="M7 6C7 5.73478 7.10536 5.48043 7.29289 5.29289C7.48043 5.10536 7.73478 5 8 5H16C16.2652 5 16.5196 5.10536 16.7071 5.29289C16.8946 5.48043 17 5.73478 17 6V8C17 8.26522 16.8946 8.51957 16.7071 8.70711C16.5196 8.89464 16.2652 9 16 9H8C7.73478 9 7.48043 8.89464 7.29289 8.70711C7.10536 8.51957 7 8.26522 7 8V6ZM8.5 7.5H15.5V6.5H8.5V7.5ZM4 4.5C4 3.83696 4.26339 3.20107 4.73223 2.73223C5.20107 2.26339 5.83696 2 6.5 2H18C18.3283 2 18.6534 2.06466 18.9567 2.1903C19.26 2.31594 19.5356 2.50009 19.7678 2.73223C19.9999 2.96438 20.1841 3.23998 20.3097 3.54329C20.4353 3.84661 20.5 4.1717 20.5 4.5V11.732C20.0249 11.4849 19.5211 11.2975 19 11.174V4.5C19 4.23478 18.8946 3.98043 18.7071 3.79289C18.5196 3.60536 18.2652 3.5 18 3.5H6.5C6.23478 3.5 5.98043 3.60536 5.79289 3.79289C5.60536 3.98043 5.5 4.23478 5.5 4.5V18H11.019C11.0597 18.5213 11.1577 19.0213 11.313 19.5H5.5C5.5 19.7652 5.60536 20.0196 5.79289 20.2071C5.98043 20.3946 6.23478 20.5 6.5 20.5H11.732C12.0181 21.0488 12.3811 21.5539 12.81 22H6.5C5.83696 22 5.20107 21.7366 4.73223 21.2678C4.26339 20.7989 4 20.163 4 19.5V4.5ZM23 17.5C23 16.0413 22.4205 14.6424 21.3891 13.6109C20.3576 12.5795 18.9587 12 17.5 12C16.0413 12 14.6424 12.5795 13.6109 13.6109C12.5795 14.6424 12 16.0413 12 17.5C12 18.9587 12.5795 20.3576 13.6109 21.3891C14.6424 22.4205 16.0413 23 17.5 23C18.9587 23 20.3576 22.4205 21.3891 21.3891C22.4205 20.3576 23 18.9587 23 17.5ZM18 18L18.001 20.503C18.001 20.6356 17.9483 20.7628 17.8546 20.8566C17.7608 20.9503 17.6336 21.003 17.501 21.003C17.3684 21.003 17.2412 20.9503 17.1474 20.8566C17.0537 20.7628 17.001 20.6356 17.001 20.503V18H14.496C14.3634 18 14.2362 17.9473 14.1424 17.8536C14.0487 17.7598 13.996 17.6326 13.996 17.5C13.996 17.3674 14.0487 17.2402 14.1424 17.1464C14.2362 17.0527 14.3634 17 14.496 17H17V14.5C17 14.3674 17.0527 14.2402 17.1464 14.1464C17.2402 14.0527 17.3674 14 17.5 14C17.6326 14 17.7598 14.0527 17.8536 14.1464C17.9473 14.2402 18 14.3674 18 14.5V17H20.497C20.6296 17 20.7568 17.0527 20.8506 17.1464C20.9443 17.2402 20.997 17.3674 20.997 17.5C20.997 17.6326 20.9443 17.7598 20.8506 17.8536C20.7568 17.9473 20.6296 18 20.497 18H18Z" fill="white"/>
</svg>
